<svg xmlns="http://www.w3.org/2000/svg" width="800" height="600" viewBox="0 0 800 600" fill="none">
  <defs>
    <linearGradient id="bg" x1="0" y1="0" x2="1" y2="1">
      <stop offset="0%" stop-color="#164e63"/>
      <stop offset="100%" stop-color="#083344"/>
    </linearGradient>
  </defs>
  <rect width="800" height="600" fill="url(#bg)"/>
  
  <g transform="translate(400, 300)">
    <!-- Water Drop -->
    <path d="M0 -100 Q40 -50 60 10 C80 60 50 100 0 100 C-50 100 -80 60 -60 10 Q-40 -50 0 -100" fill="#22d3ee" opacity="0.6"/>
    
    <!-- Circuit Lines -->
    <path d="M-60 10 L-100 10 L-100 -40 L-140 -40" stroke="#67e8f9" stroke-width="4" fill="none"/>
    <circle cx="-140" cy="-40" r="6" fill="#67e8f9"/>
    
    <path d="M60 10 L100 10 L100 60 L140 60" stroke="#67e8f9" stroke-width="4" fill="none"/>
    <circle cx="140" cy="60" r="6" fill="#67e8f9"/>
    
    <!-- Plant -->
    <path d="M0 100 L0 140" stroke="#4ade80" stroke-width="6"/>
    <path d="M0 120 Q30 110 40 90" stroke="#4ade80" stroke-width="4" fill="none"/>
    <circle cx="40" cy="90" r="4" fill="#22c55e"/>
    
    <text x="0" y="200" text-anchor="middle" fill="#cffafe" font-family="sans-serif" font-size="24">SMART IRRIGATION</text>
  </g>
</svg>
