<svg xmlns="http://www.w3.org/2000/svg" width="800" height="600" viewBox="0 0 800 600" fill="none">
  <defs>
    <linearGradient id="bg" x1="0" y1="0" x2="1" y2="1">
      <stop offset="0%" stop-color="#4c1d95"/>
      <stop offset="100%" stop-color="#2e1065"/>
    </linearGradient>
  </defs>
  <rect width="800" height="600" fill="url(#bg)"/>
  
  <g transform="translate(400, 300)">
    <!-- Book -->
    <path d="M-80 0 Q-40 20 0 0 Q40 20 80 0 V100 Q40 120 0 100 Q-40 120 -80 100 Z" fill="#c4b5fd"/>
    <line x1="0" y1="0" x2="0" y2="100" stroke="#5b21b6" stroke-width="2"/>
    
    <!-- Chat Bubbles -->
    <path d="M60 -60 H140 V-20 H100 L80 0 L80 -20 H60 Z" fill="#8b5cf6"/>
    <path d="M-140 -80 H-60 V-40 H-80 L-100 -20 V-40 H-140 Z" fill="#a78bfa"/>
    
    <circle cx="0" cy="-60" r="30" fill="#ddd6fe"/>
    <circle cx="0" cy="-70" r="10" fill="#5b21b6"/>
    <path d="M-20 -50 Q0 -30 20 -50" stroke="#5b21b6" stroke-width="4" fill="none"/>
    
    <text x="0" y="160" text-anchor="middle" fill="#ede9fe" font-family="sans-serif" font-size="28" font-weight="bold">StudyBuddy</text>
  </g>
</svg>
