<svg xmlns="http://www.w3.org/2000/svg" width="800" height="600" viewBox="0 0 800 600" fill="none">
  <defs>
    <linearGradient id="bg" x1="0" y1="0" x2="1" y2="1">
      <stop offset="0%" stop-color="#0f172a"/>
      <stop offset="100%" stop-color="#1e293b"/>
    </linearGradient>
  </defs>
  <rect width="800" height="600" fill="url(#bg)"/>
  <g transform="translate(400, 300)">
    <rect x="-80" y="-80" width="40" height="40" fill="#ef4444"/>
    <rect x="-40" y="-80" width="40" height="40" fill="#fca5a5"/>
    <rect x="0" y="-80" width="40" height="40" fill="#b91c1c"/>
    <rect x="40" y="-80" width="40" height="40" fill="#fee2e2"/>
    
    <rect x="-80" y="-40" width="40" height="40" fill="#f87171"/>
    <rect x="-40" y="-40" width="40" height="40" fill="#ef4444"/>
    <rect x="0" y="-40" width="40" height="40" fill="#fee2e2"/>
    <rect x="40" y="-40" width="40" height="40" fill="#dc2626"/>
    
    <rect x="-80" y="0" width="40" height="40" fill="#b91c1c"/>
    <rect x="-40" y="0" width="40" height="40" fill="#fee2e2"/>
    <rect x="0" y="0" width="40" height="40" fill="#ef4444"/>
    <rect x="40" y="0" width="40" height="40" fill="#f87171"/>

    <text x="0" y="150" text-anchor="middle" fill="#e2e8f0" font-family="sans-serif" font-size="24">PERFORMANCE HEATMAP</text>
  </g>
</svg>
