<svg xmlns="http://www.w3.org/2000/svg" width="1200" height="630" viewBox="0 0 1200 630" fill="none">
  <defs>
    <linearGradient id="g1" x1="0" y1="0" x2="0" y2="1">
      <stop offset="0%" stop-color="#3b82f6"/>
      <stop offset="100%" stop-color="#06b6d4"/>
    </linearGradient>
    <linearGradient id="g2" x1="0" y1="0" x2="1" y2="1">
      <stop offset="0%" stop-color="#ffffff" stop-opacity="0.7"/>
      <stop offset="100%" stop-color="#e5e7eb" stop-opacity="0.7"/>
    </linearGradient>
  </defs>
  <rect width="1200" height="630" fill="url(#g1)"/>
  <g transform="translate(140,120)">
    <rect x="0" y="0" width="920" height="390" rx="16" fill="#0b1220" opacity="0.25"/>
    <rect x="10" y="10" width="900" height="370" rx="14" fill="#0b1220" opacity="0.2"/>
    <rect x="20" y="20" width="880" height="350" rx="12" fill="#0b1220" opacity="0.15"/>
  </g>
  <g transform="translate(200,170)">
    <rect x="0" y="0" width="800" height="290" rx="12" fill="#0f172a"/>
    <rect x="0" y="0" width="800" height="48" rx="12" fill="#111827"/>
    <circle cx="24" cy="24" r="6" fill="#ef4444"/>
    <circle cx="44" cy="24" r="6" fill="#f59e0b"/>
    <circle cx="64" cy="24" r="6" fill="#10b981"/>
    <rect x="88" y="14" width="280" height="20" rx="6" fill="#1f2937"/>

    <g transform="translate(36,78)">
      <rect x="0" y="0" width="220" height="190" rx="12" fill="#0ea5e9"/>
      <g transform="translate(24,26)">
        <circle cx="56" cy="44" r="36" fill="url(#g2)"/>
        <path d="M20 120c8-16 18-24 30-24s24 8 34 8 20-8 28-24" stroke="#93c5fd" stroke-width="10" stroke-linecap="round" fill="none"/>
        <path d="M12 144h40" stroke="#bae6fd" stroke-width="6" stroke-linecap="round"/>
        <path d="M72 144h40" stroke="#bae6fd" stroke-width="6" stroke-linecap="round"/>
        <path d="M132 144h40" stroke="#bae6fd" stroke-width="6" stroke-linecap="round"/>
      </g>
      <rect x="16" y="154" width="188" height="16" rx="8" fill="#0369a1"/>
    </g>

    <g transform="translate(280,78)">
      <rect x="0" y="0" width="484" height="48" rx="8" fill="#0b1220"/>
      <rect x="12" y="12" width="180" height="24" rx="6" fill="#1f2937"/>
      <rect x="204" y="12" width="120" height="24" rx="6" fill="#1f2937"/>
      <rect x="328" y="12" width="144" height="24" rx="6" fill="#1f2937"/>

      <rect x="0" y="72" width="484" height="8" rx="4" fill="#0b1220"/>
      <rect x="0" y="92" width="484" height="8" rx="4" fill="#0b1220"/>
      <rect x="0" y="112" width="484" height="8" rx="4" fill="#0b1220"/>
      <rect x="0" y="132" width="484" height="8" rx="4" fill="#0b1220"/>

      <rect x="0" y="164" width="80" height="80" rx="10" fill="#0b1220"/>
      <rect x="100" y="164" width="80" height="80" rx="10" fill="#0b1220"/>
      <rect x="200" y="164" width="80" height="80" rx="10" fill="#0b1220"/>
      <rect x="300" y="164" width="80" height="80" rx="10" fill="#0b1220"/>
      <rect x="400" y="164" width="80" height="80" rx="10" fill="#0b1220"/>
    </g>
  </g>

  <text x="50%" y="580" text-anchor="middle" fill="#e0f2fe" font-family="Inter, Segoe UI, Roboto, Arial" font-size="28" font-weight="600">Weather Forecast Application</text>
</svg>